<?xml version="1.0" encoding="utf-8"?>
<!-- Generator: Adobe Illustrator 15.0.0, SVG Export Plug-In . SVG Version: 6.00 Build 0)  -->
<!DOCTYPE svg PUBLIC "-//W3C//DTD SVG 1.1//EN" "http://www.w3.org/Graphics/SVG/1.1/DTD/svg11.dtd">
<svg version="1.1" id="Layer_1" xmlns="http://www.w3.org/2000/svg" xmlns:xlink="http://www.w3.org/1999/xlink" x="0px" y="0px"
	 width="2048px" height="1068px" viewBox="0 0 2048 1068" enable-background="new 0 0 2048 1068" xml:space="preserve">
<g id="Layer_3">
</g>
<g id="Layer_2" display="none">
	<g display="inline">
		<path d="M1297.388-1286.053h-177.604v633.451H856.36v-633.451H731.197v-223.693h125.162v-144.979
			c0-103.626,49.31-265.626,265.849-265.626l194.928,0.785v217.177h-141.547c-23.108,0-55.811,11.596-55.811,60.979v131.665h200.646
			L1297.388-1286.053z M1025.811-2307.643C459.279-2307.643,0-1848.23,0-1281.758C0-715.211,459.279-256.01,1025.811-256.01
			c566.556,0,1025.896-459.201,1025.896-1025.748C2051.707-1848.23,1592.357-2307.643,1025.811-2307.643"/>
	</g>
</g>
<path fill="#732E9C" d="M1022.72,1068c-20.114,0-40.224-7.494-55.791-22.486L24.663,138.428
	c-32.021-30.816-32.985-81.754-2.17-113.773C53.314-7.352,104.251-8.322,136.255,22.49l886.543,853.445l889.031-853.519
	c32.052-30.774,82.993-29.732,113.751,2.325c30.773,32.061,29.742,82.991-2.32,113.769l-944.815,907.079
	C1062.87,1060.53,1042.792,1068,1022.72,1068z"/>
</svg>
